HIERARCHY
ROOT Hips
{
    OFFSET 0.000000 0.000000 0.000000
    CHANNELS 6 Xposition Yposition Zposition Zrotation Yrotation Xrotation
    JOINT LeftUpLeg
    {
        OFFSET 9.351303 -10.175838 3.526452
        CHANNELS 3 Zrotation Yrotation Xrotation
        JOINT LeftLeg
        {
            OFFSET 14.659636 -40.277084 0.000000
            CHANNELS 3 Zrotation Yrotation Xrotation
            JOINT LeftFoot
            {
                OFFSET 14.067878 -38.651161 0.000000
                CHANNELS 3 Zrotation Yrotation Xrotation
                JOINT LeftToeBase
                {
                    OFFSET 1.112173 -3.055653 12.111810
                    CHANNELS 3 Zrotation Yrotation Xrotation
                    End Site
                    {
                        OFFSET 0.000000 0.000000 0.000000
                    }
                }
            }
        }
    }
    JOINT RightUpLeg
    {
        OFFSET -9.091435 -10.175838 3.526395
        CHANNELS 3 Zrotation Yrotation Xrotation
        JOINT RightLeg
        {
            OFFSET -14.647331 -40.243275 0.000000
            CHANNELS 3 Zrotation Yrotation Xrotation
            JOINT RightFoot
            {
                OFFSET -13.929250 -38.270390 0.000000
                CHANNELS 3 Zrotation Yrotation Xrotation
                JOINT RightToeBase
                {
                    OFFSET -1.299567 -3.570534 12.043344
                    CHANNELS 3 Zrotation Yrotation Xrotation
                    End Site
                    {
                        OFFSET 0.000000 0.000000 0.000000
                    }
                }
            }
        }
    }
    JOINT Spine
    {
        OFFSET 0.110687 11.596420 -0.796538
        CHANNELS 3 Zrotation Yrotation Xrotation
        JOINT Spine1
        {
            OFFSET 0.057629 11.652073 -0.334205
            CHANNELS 3 Zrotation Yrotation Xrotation
            JOINT Neck1
            {
                OFFSET 0.040245 8.845395 0.844854
                CHANNELS 3 Zrotation Yrotation Xrotation
                JOINT Head
                {
                    OFFSET 0.193546 8.807578 -0.564779
                    CHANNELS 3 Zrotation Yrotation Xrotation
                    End Site
                    {
                        OFFSET 0.000000 0.000000 0.000000
                    }
                }
            }
            JOINT LeftShoulder
            {
                OFFSET 0.000000 0.000000 0.000000
                CHANNELS 3 Zrotation Yrotation Xrotation
                JOINT LeftArm
                {
                    OFFSET 19.992746 5.104569 -0.980094
                    CHANNELS 3 Zrotation Yrotation Xrotation
                    JOINT LeftForeArm
                    {
                        OFFSET 27.460739 -0.000000 -0.000000
                        CHANNELS 3 Zrotation Yrotation Xrotation
                        JOINT LeftHand
                        {
                            OFFSET 18.940010 -0.000000 0.000000
                            CHANNELS 3 Zrotation Yrotation Xrotation
                            End Site
                            {
                                OFFSET 0.000000 0.000000 0.000000
                            }
                        }
                    }
                }
            }
            JOINT RightShoulder
            {
                OFFSET 0.000000 0.000000 0.000000
                CHANNELS 3 Zrotation Yrotation Xrotation
                JOINT RightArm
                {
                    OFFSET -19.744225 4.289406 -1.840978
                    CHANNELS 3 Zrotation Yrotation Xrotation
                    JOINT RightForeArm
                    {
                        OFFSET -28.371523 -0.000000 0.000000
                        CHANNELS 3 Zrotation Yrotation Xrotation
                        JOINT RightHand
                        {
                            OFFSET -18.989511 -0.000000 0.000000
                            CHANNELS 3 Zrotation Yrotation Xrotation
                            End Site
                            {
                                OFFSET 0.000000 0.000000 0.000000
                            }
                        }
                    }
                }
            }
        }
    }
}
MOTION
Frames: 12
Frame Time: 0.016667
48.863010 95.841911 -17.155025 1.394401 -0.241800 1.903300 -28.515911 1.540300 16.669106 1.686599 8.180300 23.262897 0.637000 8.329206 14.507305 1.083001 -6.614402 -18.577812 16.603703 23.393202 -35.478901 -10.407701 -17.632807 60.842419 -0.974000 -5.713500 -21.547701 -0.944001 6.188202 -17.331411 -1.954841 -9.527872 7.258628 2.501300 -2.691100 -2.831701 -3.542034 7.907823 -19.652767 0.662000 2.382102 0.624500 0.000000 0.000000 0.000000 -75.228798 -4.169401 51.597500 135.210693 -50.664803 -97.924400 0.000000 0.000000 -27.742708 0.000000 0.000000 0.000000 76.108498 -46.808102 44.095802 -65.496887 57.605099 -38.950294 0.000000 0.000000 -11.409300 
48.852848 96.505699 -12.298583 2.446902 0.166700 2.232201 -29.221903 2.105000 16.666000 2.076202 9.023004 25.867411 0.406800 8.999207 12.140409 1.143701 -6.790902 -19.097500 15.570193 22.605097 -33.918900 -7.856102 -16.012407 52.042904 -1.110100 -4.799398 -22.176399 -1.156301 6.827002 -19.203907 -2.690838 -9.771989 5.945207 2.266300 -2.781402 -2.359101 -3.806285 7.169954 -19.216091 -0.248700 2.192202 1.507301 0.000000 0.000000 0.000000 -75.271194 -2.449499 53.292622 134.898605 -50.818119 -97.682716 0.000000 0.000000 -29.087200 0.000000 0.000000 0.000000 78.366119 -47.815903 41.666912 -67.747147 58.043633 -40.855034 0.000000 0.000000 -11.389599 
48.878250 96.934105 -7.564625 3.310401 0.448300 2.352701 -29.551985 2.900998 15.799206 2.736002 10.254806 29.806009 0.001300 11.781900 8.282507 0.542200 -4.717902 -13.105707 14.830010 21.923111 -32.094711 -5.792602 -14.224303 44.143623 -1.318800 -3.459500 -23.184790 -1.642201 8.077108 -22.948603 -3.175617 -9.904421 5.365095 1.905301 -2.826903 -2.530402 -3.685921 8.971251 -18.752748 1.336200 2.682801 0.582300 0.000000 0.000000 0.000000 -75.048431 -0.167101 54.920395 134.497314 -51.012417 -97.371231 0.000000 0.000000 -29.599295 0.000000 0.000000 0.000000 80.237106 -48.251602 39.975227 -69.941330 58.423717 -42.720623 0.000000 0.000000 -11.646200 
48.957272 97.166084 -2.847600 4.070200 0.533100 2.136601 -29.675507 3.968401 14.696801 3.625602 11.644809 34.486801 -0.205100 12.522107 5.710606 0.562800 -4.804802 -13.352704 14.427207 21.087719 -29.641016 -4.295000 -12.543000 37.680916 -1.351100 -2.046300 -22.782101 -1.485699 7.700802 -21.808796 -3.560522 -9.943486 5.238042 1.623200 -2.852101 -2.254301 -4.346749 7.946071 -19.012331 0.216200 2.430000 1.186400 0.000000 0.000000 0.000000 -75.152992 2.020693 56.151989 134.013611 -51.242626 -96.994637 0.000000 0.000000 -29.423407 0.000000 0.000000 0.000000 81.740211 -47.725319 38.828621 -72.721916 58.841412 -45.094910 0.000000 0.000000 -12.555400 
48.921146 97.170609 1.932643 3.956204 0.789000 1.639600 -28.391005 5.136102 13.418297 4.773601 13.124206 39.835213 -0.375600 12.993406 2.975101 0.531000 -4.669604 -12.968510 15.164100 20.543690 -27.216099 -3.421201 -11.347505 33.460899 -1.621100 -2.134100 -24.906700 -1.558900 7.879606 -22.349007 -3.047546 -9.816218 5.328898 1.465400 -2.818001 -1.855500 -5.100211 7.782674 -19.402580 -0.078000 2.425800 1.265801 0.000000 0.000000 0.000000 -75.879395 4.440395 57.555305 133.371521 -51.541828 -96.492920 0.000000 0.000000 -29.257303 0.000000 0.000000 0.000000 83.094101 -46.570602 37.773823 -74.281982 59.045628 -46.431400 0.000000 0.000000 -12.545900 
48.841560 96.646240 6.464531 4.833404 1.074800 0.972601 -28.222502 5.891901 11.690101 6.344000 14.753605 46.347198 -0.503800 13.366800 0.248100 0.403800 -4.079402 -11.300204 15.003898 19.376802 -25.066999 -2.934800 -10.588704 30.905005 -1.715900 -2.815600 -25.893000 -1.382700 7.440500 -21.027100 -4.063471 -9.383431 6.138764 1.754701 -2.710602 -1.833200 -5.501420 7.047969 -19.884829 -0.298400 2.246201 1.454601 0.000000 0.000000 0.000000 -76.477226 7.038300 58.903008 132.455795 -51.955692 -95.773697 0.000000 0.000000 -29.305002 0.000000 0.000000 0.000000 84.353531 -45.152618 36.963516 -76.510208 59.301125 -48.344910 0.000000 0.000000 -12.336200 
48.810516 95.983017 10.815235 2.922099 0.850100 0.483600 -25.163099 6.285300 8.801301 8.401003 16.406404 53.994602 -0.576200 13.754300 -1.355401 0.400100 -4.061102 -11.248500 17.982206 18.850906 -22.851503 -2.708500 -10.207506 29.651300 -1.701201 -2.753901 -25.759903 -0.894801 6.029003 -16.868519 -1.508004 -8.716891 7.099415 1.441601 -2.485700 -2.152600 -5.803430 6.871297 -20.400101 -0.092300 2.214900 1.382100 0.000000 0.000000 0.000000 -77.316612 9.539706 59.695431 131.038101 -52.568111 -94.652504 0.000000 0.000000 -30.234898 0.000000 0.000000 0.000000 85.267838 -42.740623 36.457111 -78.260178 59.472820 -49.851059 0.000000 0.000000 -11.476205 
48.806000 94.840599 15.390021 3.948000 1.019401 -0.461100 -25.338003 6.569303 6.499101 10.765992 17.818594 62.019199 -0.625200 13.882000 -4.059901 0.435900 -4.236798 -11.743904 17.686306 17.780005 -20.226507 -2.683299 -10.163802 29.508801 -1.725200 -4.281699 -26.657305 -1.377400 7.426799 -20.986107 -2.704657 -8.205194 8.038080 1.798300 -2.365602 -1.760100 -6.074800 6.376669 -20.699907 -0.286300 2.096601 1.496200 0.000000 0.000000 0.000000 -77.966499 12.145498 60.109901 128.920349 -53.421822 -92.961250 0.000000 0.000000 -30.906301 0.000000 0.000000 0.000000 85.491310 -39.661903 36.774303 -80.023422 59.620518 -51.371006 0.000000 0.000000 -10.827800 
48.824059 93.540131 19.696699 3.392401 0.829800 -0.334600 -23.806402 6.226301 2.347901 13.488599 18.951504 70.636398 -0.620400 13.793200 -4.936400 0.250200 -3.218299 -8.886996 18.682600 17.922300 -18.939201 -2.862002 -10.468204 30.506514 -1.494701 -3.795899 -24.730097 -1.527701 7.803898 -22.120214 -1.722105 -7.401439 8.123167 1.822501 -2.111299 -2.112001 -6.381270 5.880117 -20.638559 -0.385200 1.972701 1.186600 0.000000 0.000000 0.000000 -78.280724 15.092907 60.525810 126.232704 -54.406319 -90.789101 0.000000 0.000000 -31.510002 0.000000 0.000000 0.000000 84.988510 -36.048409 37.660404 -81.418823 59.719925 -52.575417 0.000000 0.000000 -10.419100 
48.848896 92.130150 24.010714 2.534602 0.196300 -0.945001 -21.864300 6.196100 -1.342200 16.349104 19.677404 79.270012 -0.563400 13.177707 -5.622503 0.153900 -2.528100 -6.967600 20.647404 16.388502 -18.256405 -3.445900 -11.384100 33.586407 -1.105400 -1.682000 -20.536200 -0.791500 5.679201 -15.856299 -0.416177 -6.016150 9.104609 1.495500 -1.689700 -2.625900 -6.189088 5.163688 -20.088913 -0.231500 1.755100 1.228801 0.000000 0.000000 0.000000 -77.779610 17.964401 60.740211 123.090431 -55.428638 -88.217316 0.000000 0.000000 -31.068113 0.000000 0.000000 0.000000 84.386299 -31.727100 38.520000 -83.233124 59.826332 -54.143127 0.000000 0.000000 -9.959700 
48.824059 90.818398 28.260384 1.796200 -1.216900 -1.761700 -19.925400 6.566000 -5.254200 19.181700 19.983900 87.606903 -0.424200 11.562600 -5.976000 0.124100 -2.271100 -6.255498 22.644196 17.111601 -17.475304 -4.624402 -12.947905 39.173599 -1.227800 -0.103400 -20.995407 -0.073600 1.750600 -4.816802 0.413516 -4.371904 10.782807 1.003101 -1.211200 -2.631600 -5.540432 5.251278 -20.982656 -0.429000 1.758400 0.497100 0.000000 0.000000 0.000000 -76.823021 19.946806 59.794098 118.891304 -56.598202 -84.734795 0.000000 0.000000 -29.460094 0.000000 0.000000 0.000000 83.765106 -24.952303 40.279507 -83.964432 59.861938 -54.775421 0.000000 0.000000 -9.507300 
49.001297 89.292717 32.016731 -0.889300 -2.788000 -2.854101 -16.059393 6.544201 -9.437199 22.097307 19.894215 96.142494 -0.244300 9.073503 -5.991202 0.182800 -2.753502 -7.593103 26.950907 19.016310 -14.930010 -5.674200 -14.105000 43.659489 -1.369600 -1.309801 -22.625010 -0.095100 1.988800 -5.474800 3.884364 -3.563297 13.678811 0.520400 -0.866500 -3.444300 -5.581632 5.998040 -22.367107 -0.699501 1.982702 -0.165800 0.000000 0.000000 0.000000 -76.965820 22.063007 58.735203 112.626526 -57.974312 -79.461838 0.000000 0.000000 -31.447605 0.000000 0.000000 0.000000 81.668205 -17.436602 43.107216 -86.180992 59.944794 -56.693306 0.000000 0.000000 -9.228100 
